<?xml version="1.0" encoding="UTF-8"?>
<svg xmlns="http://www.w3.org/2000/svg" xmlns:xlink="http://www.w3.org/1999/xlink" width="25px" height="14px" viewBox="0 0 25 14" version="1.1">
<g id="surface1">
<path style=" stroke:none;fill-rule:nonzero;fill:rgb(85.490197%,0%,0%);fill-opacity:1;" d="M 0.5 0 L 24.5 0 L 24.5 14 L 0.5 14 Z M 0.5 0 "/>
<path style=" stroke:none;fill-rule:nonzero;fill:rgb(100%,100%,100%);fill-opacity:1;" d="M 0.5 0 L 24.5 0 L 24.5 9.332031 L 0.5 9.332031 Z M 0.5 0 "/>
<path style=" stroke:none;fill-rule:nonzero;fill:rgb(13.725491%,62.352943%,25.098041%);fill-opacity:1;" d="M 0.5 0 L 24.5 0 L 24.5 4.667969 L 0.5 4.667969 Z M 0.5 0 "/>
<path style="fill:none;stroke-width:2;stroke-linecap:butt;stroke-linejoin:miter;stroke:rgb(100%,100%,100%);stroke-opacity:1;stroke-miterlimit:4;" d="M 0.0058595 1.037637 L 26.006803 1.037637 M 1.031249 10.006076 L 1.031249 5.055497 L 9.014637 5.055497 L 9.014637 9.00161 L 16.998025 9.00161 L 16.998025 5.055497 L 12.017563 5.055497 M 4.034175 9.00161 L 5.938469 9.00161 M 26.006803 9.00161 L 20.953098 9.00161 L 20.953098 5.055497 L 29.009729 5.055497 M 29.009729 0.0331718 L 29.009729 9.00161 L 36.993117 9.00161 L 36.993117 0.0331718 M 33.038044 0.0331718 L 33.038044 9.00161 " transform="matrix(0.0533334,0,0,0.0544444,0.82,3.904444)"/>
<path style="fill:none;stroke-width:2;stroke-linecap:butt;stroke-linejoin:miter;stroke:rgb(100%,100%,100%);stroke-opacity:1;stroke-miterlimit:4;" d="M 0.00292975 7.011955 L 9.011691 7.011955 M 10.000457 7.011955 L 19.009219 7.011955 " transform="matrix(0.106667,0,0,0.108889,0.82,3.904444)"/>
<path style="fill:none;stroke-width:2;stroke-linecap:butt;stroke-linejoin:miter;stroke:rgb(100%,100%,100%);stroke-opacity:1;stroke-miterlimit:4;" d="M 0.00292975 6.988039 L 9.011691 6.988039 M 10.000457 6.988039 L 19.009219 6.988039 " transform="matrix(0.106667,0,0,0.108889,0.82,8.571111)"/>
<path style="fill:none;stroke-width:2;stroke-linecap:butt;stroke-linejoin:miter;stroke:rgb(100%,100%,100%);stroke-opacity:1;stroke-miterlimit:4;" d="M 0.0058595 0.998422 L 26.006803 0.998422 M 1.031249 9.966861 L 1.031249 4.944535 L 9.014637 4.944535 L 9.014637 8.962395 L 16.998025 8.962395 L 16.998025 4.944535 L 12.017563 4.944535 M 4.034175 8.962395 L 5.938469 8.962395 M 26.006803 8.962395 L 20.953098 8.962395 L 20.953098 4.944535 L 29.009729 4.944535 M 29.009729 -0.00604319 L 29.009729 8.962395 L 36.993117 8.962395 L 36.993117 -0.00604319 M 33.038044 -0.00604319 L 33.038044 8.962395 " transform="matrix(0.0533334,0,0,0.0544444,0.82,9.55111)"/>
<path style="fill:none;stroke-width:2;stroke-linecap:butt;stroke-linejoin:miter;stroke:rgb(100%,100%,100%);stroke-opacity:1;stroke-miterlimit:4;" d="M -0.00392049 1.037637 L 25.997023 1.037637 M 1.021469 10.006076 L 1.021469 5.055497 L 9.004857 5.055497 L 9.004857 9.00161 L 16.988245 9.00161 L 16.988245 5.055497 L 12.007783 5.055497 M 4.024395 9.00161 L 6.001931 9.00161 M 25.997023 9.00161 L 21.01656 9.00161 L 21.01656 5.055497 L 28.999949 5.055497 M 28.999949 0.0331718 L 28.999949 9.00161 L 37.056579 9.00161 L 37.056579 0.0331718 M 32.955022 0.0331718 L 32.955022 9.00161 " transform="matrix(0.0533334,0,0,0.0544444,2.953334,3.904444)"/>
<path style="fill:none;stroke-width:2;stroke-linecap:butt;stroke-linejoin:miter;stroke:rgb(100%,100%,100%);stroke-opacity:1;stroke-miterlimit:4;" d="M -0.00196024 7.011955 L 9.006801 7.011955 M 9.995567 7.011955 L 18.967708 7.011955 " transform="matrix(0.106667,0,0,0.108889,2.953334,3.904444)"/>
<path style="fill:none;stroke-width:2;stroke-linecap:butt;stroke-linejoin:miter;stroke:rgb(100%,100%,100%);stroke-opacity:1;stroke-miterlimit:4;" d="M -0.00196024 6.988039 L 9.006801 6.988039 M 9.995567 6.988039 L 18.967708 6.988039 " transform="matrix(0.106667,0,0,0.108889,2.953334,8.571111)"/>
<path style="fill:none;stroke-width:2;stroke-linecap:butt;stroke-linejoin:miter;stroke:rgb(100%,100%,100%);stroke-opacity:1;stroke-miterlimit:4;" d="M -0.00392049 0.998422 L 25.997023 0.998422 M 1.021469 9.966861 L 1.021469 4.944535 L 9.004857 4.944535 L 9.004857 8.962395 L 16.988245 8.962395 L 16.988245 4.944535 L 12.007783 4.944535 M 4.024395 8.962395 L 6.001931 8.962395 M 25.997023 8.962395 L 21.01656 8.962395 L 21.01656 4.944535 L 28.999949 4.944535 M 28.999949 -0.00604319 L 28.999949 8.962395 L 37.056579 8.962395 L 37.056579 -0.00604319 M 32.955022 -0.00604319 L 32.955022 8.962395 " transform="matrix(0.0533334,0,0,0.0544444,2.953334,9.55111)"/>
<path style="fill:none;stroke-width:2;stroke-linecap:butt;stroke-linejoin:miter;stroke:rgb(100%,100%,100%);stroke-opacity:1;stroke-miterlimit:4;" d="M -0.0136792 1.037637 L 26.060506 1.037637 M 1.01171 10.006076 L 1.01171 5.055497 L 8.995098 5.055497 L 8.995098 9.00161 L 16.978486 9.00161 L 16.978486 5.055497 L 11.998024 5.055497 M 4.014636 9.00161 L 5.992172 9.00161 M 26.060506 9.00161 L 21.006802 9.00161 L 21.006802 5.055497 L 28.99019 5.055497 M 28.99019 0.0331718 L 28.99019 9.00161 L 36.973578 9.00161 L 36.973578 0.0331718 M 33.018505 0.0331718 L 33.018505 9.00161 " transform="matrix(0.0533334,0,0,0.0544444,5.086667,3.904444)"/>
<path style="fill:none;stroke-width:2;stroke-linecap:butt;stroke-linejoin:miter;stroke:rgb(100%,100%,100%);stroke-opacity:1;stroke-miterlimit:4;" d="M -0.00683961 7.011955 L 9.001922 7.011955 M 9.990688 7.011955 L 18.999449 7.011955 " transform="matrix(0.106667,0,0,0.108889,5.086667,3.904444)"/>
<path style="fill:none;stroke-width:2;stroke-linecap:butt;stroke-linejoin:miter;stroke:rgb(100%,100%,100%);stroke-opacity:1;stroke-miterlimit:4;" d="M -0.00683961 6.988039 L 9.001922 6.988039 M 9.990688 6.988039 L 18.999449 6.988039 " transform="matrix(0.106667,0,0,0.108889,5.086667,8.571111)"/>
<path style="fill:none;stroke-width:2;stroke-linecap:butt;stroke-linejoin:miter;stroke:rgb(100%,100%,100%);stroke-opacity:1;stroke-miterlimit:4;" d="M -0.0136792 0.998422 L 26.060506 0.998422 M 1.01171 9.966861 L 1.01171 4.944535 L 8.995098 4.944535 L 8.995098 8.962395 L 16.978486 8.962395 L 16.978486 4.944535 L 11.998024 4.944535 M 4.014636 8.962395 L 5.992172 8.962395 M 26.060506 8.962395 L 21.006802 8.962395 L 21.006802 4.944535 L 28.99019 4.944535 M 28.99019 -0.00604319 L 28.99019 8.962395 L 36.973578 8.962395 L 36.973578 -0.00604319 M 33.018505 -0.00604319 L 33.018505 8.962395 " transform="matrix(0.0533334,0,0,0.0544444,5.086667,9.55111)"/>
<path style="fill:none;stroke-width:2;stroke-linecap:butt;stroke-linejoin:miter;stroke:rgb(100%,100%,100%);stroke-opacity:1;stroke-miterlimit:4;" d="M 0.0498086 1.037637 L 25.97751 1.037637 M 1.001956 10.006076 L 1.001956 5.055497 L 8.985344 5.055497 L 8.985344 9.00161 L 16.968732 9.00161 L 16.968732 5.055497 L 11.98827 5.055497 M 4.004882 9.00161 L 5.982418 9.00161 M 25.97751 9.00161 L 20.997047 9.00161 L 20.997047 5.055497 L 29.053678 5.055497 M 29.053678 0.0331718 L 29.053678 9.00161 L 37.037066 9.00161 L 37.037066 0.0331718 M 33.008751 0.0331718 L 33.008751 9.00161 " transform="matrix(0.0533334,0,0,0.0544444,7.22,3.904444)"/>
<path style="fill:none;stroke-width:2;stroke-linecap:butt;stroke-linejoin:miter;stroke:rgb(100%,100%,100%);stroke-opacity:1;stroke-miterlimit:4;" d="M 0.0249042 7.011955 L 8.997044 7.011955 M 10.022432 7.011955 L 18.994572 7.011955 " transform="matrix(0.106667,0,0,0.108889,7.22,3.904444)"/>
<path style="fill:none;stroke-width:2;stroke-linecap:butt;stroke-linejoin:miter;stroke:rgb(100%,100%,100%);stroke-opacity:1;stroke-miterlimit:4;" d="M 0.0249042 6.988039 L 8.997044 6.988039 M 10.022432 6.988039 L 18.994572 6.988039 " transform="matrix(0.106667,0,0,0.108889,7.22,8.571111)"/>
<path style="fill:none;stroke-width:2;stroke-linecap:butt;stroke-linejoin:miter;stroke:rgb(100%,100%,100%);stroke-opacity:1;stroke-miterlimit:4;" d="M 0.0498086 0.998422 L 25.97751 0.998422 M 1.001956 9.966861 L 1.001956 4.944535 L 8.985344 4.944535 L 8.985344 8.962395 L 16.968732 8.962395 L 16.968732 4.944535 L 11.98827 4.944535 M 4.004882 8.962395 L 5.982418 8.962395 M 25.97751 8.962395 L 20.997047 8.962395 L 20.997047 4.944535 L 29.053678 4.944535 M 29.053678 -0.00604319 L 29.053678 8.962395 L 37.037066 8.962395 L 37.037066 -0.00604319 M 33.008751 -0.00604319 L 33.008751 8.962395 " transform="matrix(0.0533334,0,0,0.0544444,7.22,9.55111)"/>
<path style="fill:none;stroke-width:2;stroke-linecap:butt;stroke-linejoin:miter;stroke:rgb(100%,100%,100%);stroke-opacity:1;stroke-miterlimit:4;" d="M -0.0332057 1.037637 L 26.04098 1.037637 M 0.992184 10.006076 L 0.992184 5.055497 L 8.975572 5.055497 L 8.975572 9.00161 L 17.032202 9.00161 L 17.032202 5.055497 L 11.978498 5.055497 M 3.995109 9.00161 L 5.972646 9.00161 M 26.04098 9.00161 L 20.987275 9.00161 L 20.987275 5.055497 L 28.970663 5.055497 M 28.970663 0.0331718 L 28.970663 9.00161 L 37.027294 9.00161 L 37.027294 0.0331718 M 32.998979 0.0331718 L 32.998979 9.00161 " transform="matrix(0.0533334,0,0,0.0544444,9.353333,3.904444)"/>
<path style="fill:none;stroke-width:2;stroke-linecap:butt;stroke-linejoin:miter;stroke:rgb(100%,100%,100%);stroke-opacity:1;stroke-miterlimit:4;" d="M -0.0166028 7.011955 L 9.028779 7.011955 M 9.980925 7.011955 L 18.989686 7.011955 " transform="matrix(0.106667,0,0,0.108889,9.353333,3.904444)"/>
<path style="fill:none;stroke-width:2;stroke-linecap:butt;stroke-linejoin:miter;stroke:rgb(100%,100%,100%);stroke-opacity:1;stroke-miterlimit:4;" d="M -0.0166028 6.988039 L 9.028779 6.988039 M 9.980925 6.988039 L 18.989686 6.988039 " transform="matrix(0.106667,0,0,0.108889,9.353333,8.571111)"/>
<path style="fill:none;stroke-width:2;stroke-linecap:butt;stroke-linejoin:miter;stroke:rgb(100%,100%,100%);stroke-opacity:1;stroke-miterlimit:4;" d="M -0.0332057 0.998422 L 26.04098 0.998422 M 0.992184 9.966861 L 0.992184 4.944535 L 8.975572 4.944535 L 8.975572 8.962395 L 17.032202 8.962395 L 17.032202 4.944535 L 11.978498 4.944535 M 3.995109 8.962395 L 5.972646 8.962395 M 26.04098 8.962395 L 20.987275 8.962395 L 20.987275 4.944535 L 28.970663 4.944535 M 28.970663 -0.00604319 L 28.970663 8.962395 L 37.027294 8.962395 L 37.027294 -0.00604319 M 32.998979 -0.00604319 L 32.998979 8.962395 " transform="matrix(0.0533334,0,0,0.0544444,9.353333,9.55111)"/>
<path style="fill:none;stroke-width:2;stroke-linecap:butt;stroke-linejoin:miter;stroke:rgb(100%,100%,100%);stroke-opacity:1;stroke-miterlimit:4;" d="M 0.030291 1.037637 L 26.031234 1.037637 M 0.982438 10.006076 L 0.982438 5.055497 L 8.965826 5.055497 L 8.965826 9.00161 L 16.949215 9.00161 L 16.949215 5.055497 L 11.968752 5.055497 M 3.985364 9.00161 L 6.036143 9.00161 M 26.031234 9.00161 L 21.050772 9.00161 L 21.050772 5.055497 L 29.03416 5.055497 M 29.03416 0.0331718 L 29.03416 9.00161 L 37.017548 9.00161 L 37.017548 0.0331718 M 32.989233 0.0331718 L 32.989233 9.00161 " transform="matrix(0.0533334,0,0,0.0544444,11.486666,3.904444)"/>
<path style="fill:none;stroke-width:2;stroke-linecap:butt;stroke-linejoin:miter;stroke:rgb(100%,100%,100%);stroke-opacity:1;stroke-miterlimit:4;" d="M 0.0151455 7.011955 L 8.987286 7.011955 M 10.012673 7.011955 L 18.984813 7.011955 " transform="matrix(0.106667,0,0,0.108889,11.486666,3.904444)"/>
<path style="fill:none;stroke-width:2;stroke-linecap:butt;stroke-linejoin:miter;stroke:rgb(100%,100%,100%);stroke-opacity:1;stroke-miterlimit:4;" d="M 0.0151455 6.988039 L 8.987286 6.988039 M 10.012673 6.988039 L 18.984813 6.988039 " transform="matrix(0.106667,0,0,0.108889,11.486666,8.571111)"/>
<path style="fill:none;stroke-width:2;stroke-linecap:butt;stroke-linejoin:miter;stroke:rgb(100%,100%,100%);stroke-opacity:1;stroke-miterlimit:4;" d="M 0.030291 0.998422 L 26.031234 0.998422 M 0.982438 9.966861 L 0.982438 4.944535 L 8.965826 4.944535 L 8.965826 8.962395 L 16.949215 8.962395 L 16.949215 4.944535 L 11.968752 4.944535 M 3.985364 8.962395 L 6.036143 8.962395 M 26.031234 8.962395 L 21.050772 8.962395 L 21.050772 4.944535 L 29.03416 4.944535 M 29.03416 -0.00604319 L 29.03416 8.962395 L 37.017548 8.962395 L 37.017548 -0.00604319 M 32.989233 -0.00604319 L 32.989233 8.962395 " transform="matrix(0.0533334,0,0,0.0544444,11.486666,9.55111)"/>
<path style="fill:none;stroke-width:2;stroke-linecap:butt;stroke-linejoin:miter;stroke:rgb(100%,100%,100%);stroke-opacity:1;stroke-miterlimit:4;" d="M 0.0205099 1.037637 L 26.021453 1.037637 M 0.972657 10.006076 L 0.972657 5.055497 L 9.029287 5.055497 L 9.029287 9.00161 L 17.012676 9.00161 L 17.012676 5.055497 L 11.958971 5.055497 M 4.048825 9.00161 L 5.95312 9.00161 M 26.021453 9.00161 L 20.967749 9.00161 L 20.967749 5.055497 L 29.024379 5.055497 M 29.024379 0.0331718 L 29.024379 9.00161 L 37.007767 9.00161 L 37.007767 0.0331718 M 33.052694 0.0331718 L 33.052694 9.00161 " transform="matrix(0.0533334,0,0,0.0544444,13.62,3.904444)"/>
<path style="fill:none;stroke-width:2;stroke-linecap:butt;stroke-linejoin:miter;stroke:rgb(100%,100%,100%);stroke-opacity:1;stroke-miterlimit:4;" d="M 0.0102549 7.011955 L 9.019016 7.011955 M 9.971162 7.011955 L 19.016544 7.011955 " transform="matrix(0.106667,0,0,0.108889,13.62,3.904444)"/>
<path style="fill:none;stroke-width:2;stroke-linecap:butt;stroke-linejoin:miter;stroke:rgb(100%,100%,100%);stroke-opacity:1;stroke-miterlimit:4;" d="M 0.0102549 6.988039 L 9.019016 6.988039 M 9.971162 6.988039 L 19.016544 6.988039 " transform="matrix(0.106667,0,0,0.108889,13.62,8.571111)"/>
<path style="fill:none;stroke-width:2;stroke-linecap:butt;stroke-linejoin:miter;stroke:rgb(100%,100%,100%);stroke-opacity:1;stroke-miterlimit:4;" d="M 0.0205099 0.998422 L 26.021453 0.998422 M 0.972657 9.966861 L 0.972657 4.944535 L 9.029287 4.944535 L 9.029287 8.962395 L 17.012676 8.962395 L 17.012676 4.944535 L 11.958971 4.944535 M 4.048825 8.962395 L 5.95312 8.962395 M 26.021453 8.962395 L 20.967749 8.962395 L 20.967749 4.944535 L 29.024379 4.944535 M 29.024379 -0.00604319 L 29.024379 8.962395 L 37.007767 8.962395 L 37.007767 -0.00604319 M 33.052694 -0.00604319 L 33.052694 8.962395 " transform="matrix(0.0533334,0,0,0.0544444,13.62,9.55111)"/>
<path style="fill:none;stroke-width:2;stroke-linecap:butt;stroke-linejoin:miter;stroke:rgb(100%,100%,100%);stroke-opacity:1;stroke-miterlimit:4;" d="M 0.0107467 1.037637 L 26.01169 1.037637 M 0.962894 10.006076 L 0.962894 5.055497 L 8.946282 5.055497 L 8.946282 9.00161 L 17.002912 9.00161 L 17.002912 5.055497 L 12.02245 5.055497 M 3.96582 9.00161 L 6.016598 9.00161 M 26.01169 9.00161 L 21.031228 9.00161 L 21.031228 5.055497 L 29.014616 5.055497 M 29.014616 0.0331718 L 29.014616 9.00161 L 36.998004 9.00161 L 36.998004 0.0331718 M 32.969689 0.0331718 L 32.969689 9.00161 " transform="matrix(0.0533334,0,0,0.0544444,15.753333,3.904444)"/>
<path style="fill:none;stroke-width:2;stroke-linecap:butt;stroke-linejoin:miter;stroke:rgb(100%,100%,100%);stroke-opacity:1;stroke-miterlimit:4;" d="M 0.00537334 7.011955 L 8.977514 7.011955 M 10.002901 7.011955 L 18.975041 7.011955 " transform="matrix(0.106667,0,0,0.108889,15.753333,3.904444)"/>
<path style="fill:none;stroke-width:2;stroke-linecap:butt;stroke-linejoin:miter;stroke:rgb(100%,100%,100%);stroke-opacity:1;stroke-miterlimit:4;" d="M 0.00537334 6.988039 L 8.977514 6.988039 M 10.002901 6.988039 L 18.975041 6.988039 " transform="matrix(0.106667,0,0,0.108889,15.753333,8.571111)"/>
<path style="fill:none;stroke-width:2;stroke-linecap:butt;stroke-linejoin:miter;stroke:rgb(100%,100%,100%);stroke-opacity:1;stroke-miterlimit:4;" d="M 0.0107467 0.998422 L 26.01169 0.998422 M 0.962894 9.966861 L 0.962894 4.944535 L 8.946282 4.944535 L 8.946282 8.962395 L 17.002912 8.962395 L 17.002912 4.944535 L 12.02245 4.944535 M 3.96582 8.962395 L 6.016598 8.962395 M 26.01169 8.962395 L 21.031228 8.962395 L 21.031228 4.944535 L 29.014616 4.944535 M 29.014616 -0.00604319 L 29.014616 8.962395 L 36.998004 8.962395 L 36.998004 -0.00604319 M 32.969689 -0.00604319 L 32.969689 8.962395 " transform="matrix(0.0533334,0,0,0.0544444,15.753333,9.55111)"/>
<path style="fill:none;stroke-width:2;stroke-linecap:butt;stroke-linejoin:miter;stroke:rgb(100%,100%,100%);stroke-opacity:1;stroke-miterlimit:4;" d="M 0.000965594 1.037637 L 26.001909 1.037637 M 1.026355 10.006076 L 1.026355 5.055497 L 9.009743 5.055497 L 9.009743 9.00161 L 16.993131 9.00161 L 16.993131 5.055497 L 11.939427 5.055497 M 4.029281 9.00161 L 6.006817 9.00161 M 26.001909 9.00161 L 21.021446 9.00161 L 21.021446 5.055497 L 29.004835 5.055497 M 29.004835 0.0331718 L 29.004835 9.00161 L 36.988223 9.00161 L 36.988223 0.0331718 M 33.03315 0.0331718 L 33.03315 9.00161 " transform="matrix(0.0533334,0,0,0.0544444,17.886667,3.904444)"/>
<path style="fill:none;stroke-width:2;stroke-linecap:butt;stroke-linejoin:miter;stroke:rgb(100%,100%,100%);stroke-opacity:1;stroke-miterlimit:4;" d="M 0.000482796 7.011955 L 9.009244 7.011955 M 9.99801 7.011955 L 19.006772 7.011955 " transform="matrix(0.106667,0,0,0.108889,17.886667,3.904444)"/>
<path style="fill:none;stroke-width:2;stroke-linecap:butt;stroke-linejoin:miter;stroke:rgb(100%,100%,100%);stroke-opacity:1;stroke-miterlimit:4;" d="M 0.000482796 6.988039 L 9.009244 6.988039 M 9.99801 6.988039 L 19.006772 6.988039 " transform="matrix(0.106667,0,0,0.108889,17.886667,8.571111)"/>
<path style="fill:none;stroke-width:2;stroke-linecap:butt;stroke-linejoin:miter;stroke:rgb(100%,100%,100%);stroke-opacity:1;stroke-miterlimit:4;" d="M 0.000965594 0.998422 L 26.001909 0.998422 M 1.026355 9.966861 L 1.026355 4.944535 L 9.009743 4.944535 L 9.009743 8.962395 L 16.993131 8.962395 L 16.993131 4.944535 L 11.939427 4.944535 M 4.029281 8.962395 L 6.006817 8.962395 M 26.001909 8.962395 L 21.021446 8.962395 L 21.021446 4.944535 L 29.004835 4.944535 M 29.004835 -0.00604319 L 29.004835 8.962395 L 36.988223 8.962395 L 36.988223 -0.00604319 M 33.03315 -0.00604319 L 33.03315 8.962395 " transform="matrix(0.0533334,0,0,0.0544444,17.886667,9.55111)"/>
<path style="fill:none;stroke-width:2;stroke-linecap:butt;stroke-linejoin:miter;stroke:rgb(100%,100%,100%);stroke-opacity:1;stroke-miterlimit:4;" d="M 0.0644445 1.037637 L 25.992146 1.037637 M 0.94335 10.006076 L 0.94335 5.055497 L 8.99998 5.055497 L 8.99998 9.00161 L 16.983368 9.00161 L 16.983368 5.055497 L 12.002906 5.055497 M 4.019518 9.00161 L 5.997054 9.00161 M 25.992146 9.00161 L 21.011683 9.00161 L 21.011683 5.055497 L 28.995071 5.055497 M 28.995071 0.0331718 L 28.995071 9.00161 L 36.97846 9.00161 L 36.97846 0.0331718 M 33.023387 0.0331718 L 33.023387 9.00161 " transform="matrix(0.0533334,0,0,0.0544444,20.02,3.904444)"/>
<path style="fill:none;stroke-width:2;stroke-linecap:butt;stroke-linejoin:miter;stroke:rgb(100%,100%,100%);stroke-opacity:1;stroke-miterlimit:4;" d="M 0.0322222 7.011955 L 9.004362 7.011955 M 9.993129 7.011955 L 19.00189 7.011955 " transform="matrix(0.106667,0,0,0.108889,20.02,3.904444)"/>
<path style="fill:none;stroke-width:2;stroke-linecap:butt;stroke-linejoin:miter;stroke:rgb(100%,100%,100%);stroke-opacity:1;stroke-miterlimit:4;" d="M 0.0322222 6.988039 L 9.004362 6.988039 M 9.993129 6.988039 L 19.00189 6.988039 " transform="matrix(0.106667,0,0,0.108889,20.02,8.571111)"/>
<path style="fill:none;stroke-width:2;stroke-linecap:butt;stroke-linejoin:miter;stroke:rgb(100%,100%,100%);stroke-opacity:1;stroke-miterlimit:4;" d="M 0.0644445 0.998422 L 25.992146 0.998422 M 0.94335 9.966861 L 0.94335 4.944535 L 8.99998 4.944535 L 8.99998 8.962395 L 16.983368 8.962395 L 16.983368 4.944535 L 12.002906 4.944535 M 4.019518 8.962395 L 5.997054 8.962395 M 25.992146 8.962395 L 21.011683 8.962395 L 21.011683 4.944535 L 28.995071 4.944535 M 28.995071 -0.00604319 L 28.995071 8.962395 L 36.97846 8.962395 L 36.97846 -0.00604319 M 33.023387 -0.00604319 L 33.023387 8.962395 " transform="matrix(0.0533334,0,0,0.0544444,20.02,9.55111)"/>
<path style="fill:none;stroke-width:2;stroke-linecap:butt;stroke-linejoin:miter;stroke:rgb(100%,100%,100%);stroke-opacity:1;stroke-miterlimit:4;" d="M -0.0185609 1.037637 L 25.982382 1.037637 M 1.006828 10.006076 L 1.006828 5.055497 L 8.990217 5.055497 L 8.990217 9.00161 L 17.046847 9.00161 L 17.046847 5.055497 L 11.993142 5.055497 M 4.009754 9.00161 L 5.987291 9.00161 M 25.982382 9.00161 L 21.00192 9.00161 L 21.00192 5.055497 L 28.985308 5.055497 M 28.985308 0.0331718 L 28.985308 9.00161 L 36.968696 9.00161 L 36.968696 0.0331718 M 33.013623 0.0331718 L 33.013623 9.00161 " transform="matrix(0.0533334,0,0,0.0544444,22.153334,3.904444)"/>
<path style="fill:none;stroke-width:2;stroke-linecap:butt;stroke-linejoin:miter;stroke:rgb(100%,100%,100%);stroke-opacity:1;stroke-miterlimit:4;" d="M -0.00928041 7.011955 L 8.999481 7.011955 M 9.988247 7.011955 L 18.997008 7.011955 " transform="matrix(0.106667,0,0,0.108889,22.153334,3.904444)"/>
<path style="fill:none;stroke-width:2;stroke-linecap:butt;stroke-linejoin:miter;stroke:rgb(100%,100%,100%);stroke-opacity:1;stroke-miterlimit:4;" d="M -0.00928041 6.988039 L 8.999481 6.988039 M 9.988247 6.988039 L 18.997008 6.988039 " transform="matrix(0.106667,0,0,0.108889,22.153334,8.571111)"/>
<path style="fill:none;stroke-width:2;stroke-linecap:butt;stroke-linejoin:miter;stroke:rgb(100%,100%,100%);stroke-opacity:1;stroke-miterlimit:4;" d="M -0.0185609 0.998422 L 25.982382 0.998422 M 1.006828 9.966861 L 1.006828 4.944535 L 8.990217 4.944535 L 8.990217 8.962395 L 17.046847 8.962395 L 17.046847 4.944535 L 11.993142 4.944535 M 4.009754 8.962395 L 5.987291 8.962395 M 25.982382 8.962395 L 21.00192 8.962395 L 21.00192 4.944535 L 28.985308 4.944535 M 28.985308 -0.00604319 L 28.985308 8.962395 L 36.968696 8.962395 L 36.968696 -0.00604319 M 33.013623 -0.00604319 L 33.013623 8.962395 " transform="matrix(0.0533334,0,0,0.0544444,22.153334,9.55111)"/>
<path style=" stroke:none;fill-rule:nonzero;fill:rgb(85.490197%,0%,0%);fill-opacity:1;" d="M 11.558594 8.460938 C 12.269531 8.699219 13.039062 8.390625 13.40625 7.730469 C 13.773438 7.066406 13.628906 6.230469 13.0625 5.734375 C 13.425781 6.285156 13.457031 6.996094 13.136719 7.574219 C 12.816406 8.152344 12.207031 8.496094 11.558594 8.460938 "/>
<path style=" stroke:none;fill-rule:nonzero;fill:rgb(85.490197%,0%,0%);fill-opacity:1;" d="M 13.558594 8.15625 C 14.023438 7.886719 14.273438 7.355469 14.203125 6.8125 C 14.125 6.273438 13.742188 5.835938 13.222656 5.703125 C 13.585938 5.984375 13.828125 6.398438 13.890625 6.859375 C 13.953125 7.320312 13.835938 7.789062 13.558594 8.15625 "/>
<path style=" stroke:none;fill-rule:nonzero;fill:rgb(85.490197%,0%,0%);fill-opacity:1;" d="M 12.5 8.75 L 12.414062 7 L 12.5 5.621094 L 12.703125 6.824219 L 12.632812 8.5625 Z M 12.5 8.75 "/>
<path style=" stroke:none;fill-rule:nonzero;fill:rgb(85.490197%,0%,0%);fill-opacity:1;" d="M 12.464844 5.511719 L 12.5 5.546875 "/>
<path style=" stroke:none;fill-rule:nonzero;fill:rgb(85.490197%,0%,0%);fill-opacity:1;" d="M 13.441406 8.460938 C 12.730469 8.699219 11.960938 8.390625 11.59375 7.730469 C 11.226562 7.066406 11.371094 6.230469 11.9375 5.734375 C 11.574219 6.285156 11.542969 6.996094 11.863281 7.574219 C 12.183594 8.152344 12.792969 8.496094 13.441406 8.460938 "/>
<path style=" stroke:none;fill-rule:nonzero;fill:rgb(85.490197%,0%,0%);fill-opacity:1;" d="M 11.441406 8.15625 C 10.976562 7.886719 10.726562 7.355469 10.796875 6.8125 C 10.875 6.273438 11.257812 5.835938 11.777344 5.703125 C 11.414062 5.984375 11.171875 6.398438 11.109375 6.859375 C 11.046875 7.320312 11.164062 7.789062 11.441406 8.15625 "/>
<path style=" stroke:none;fill-rule:nonzero;fill:rgb(85.490197%,0%,0%);fill-opacity:1;" d="M 12.5 8.75 L 12.585938 7 L 12.5 5.621094 L 12.296875 6.824219 L 12.367188 8.5625 Z M 12.5 8.75 "/>
<path style=" stroke:none;fill-rule:nonzero;fill:rgb(85.490197%,0%,0%);fill-opacity:1;" d="M 12.535156 5.511719 L 12.5 5.546875 "/>
</g>
</svg>
