<?xml version="1.0" encoding="UTF-8"?>
<svg xmlns="http://www.w3.org/2000/svg" xmlns:xlink="http://www.w3.org/1999/xlink" width="25px" height="25px" viewBox="0 0 25 25" version="1.1">
<g id="surface1">
<path style=" stroke:none;fill-rule:nonzero;fill:rgb(100%,47.450981%,47.450981%);fill-opacity:1;" d="M 20.800781 9.816406 C 21.339844 9.816406 21.777344 10.25 21.777344 10.792969 C 21.777344 11.332031 21.339844 11.769531 20.800781 11.769531 C 20.261719 11.769531 19.824219 11.332031 19.824219 10.792969 C 19.824219 10.25 20.261719 9.816406 20.800781 9.816406 Z M 20.800781 9.816406 "/>
<path style=" stroke:none;fill-rule:nonzero;fill:rgb(83.92157%,35.686275%,35.686275%);fill-opacity:1;" d="M 20.03125 11.339844 C 20.03125 10.800781 20.46875 10.363281 21.007812 10.363281 C 21.320312 10.363281 21.59375 10.511719 21.773438 10.734375 C 21.746094 10.222656 21.324219 9.816406 20.800781 9.816406 C 20.261719 9.816406 19.824219 10.25 19.824219 10.792969 C 19.824219 11.019531 19.902344 11.230469 20.035156 11.394531 C 20.035156 11.378906 20.03125 11.359375 20.03125 11.339844 Z M 20.03125 11.339844 "/>
<path style=" stroke:none;fill-rule:nonzero;fill:rgb(84.313726%,87.058824%,92.941177%);fill-opacity:1;" d="M 22.753906 16.164062 L 22.753906 23.976562 L 2.246094 23.976562 L 2.246094 16.164062 Z M 22.753906 16.164062 "/>
<path style=" stroke:none;fill-rule:nonzero;fill:rgb(68.627453%,72.549021%,82.352942%);fill-opacity:1;" d="M 2.796875 16.734375 L 22.753906 16.734375 L 22.753906 16.164062 L 2.246094 16.164062 L 2.246094 23.976562 L 2.796875 23.976562 Z M 2.796875 16.734375 "/>
<path style=" stroke:none;fill-rule:nonzero;fill:rgb(34.117648%,37.64706%,43.529412%);fill-opacity:1;" d="M 20.800781 4.441406 L 18.378906 6.953125 C 18.378906 6.394531 18.371094 5.839844 18.382812 5.238281 C 14.273438 3.523438 10.570312 3.613281 7.128906 5.058594 C 7.121094 5.601562 7.121094 6.15625 7.128906 6.707031 L 7.117188 6.742188 L 4.6875 4.441406 L 12.824219 1.023438 Z M 20.800781 4.441406 "/>
<path style=" stroke:none;fill-rule:nonzero;fill:rgb(25.490198%,29.019609%,33.725491%);fill-opacity:1;" d="M 18.378906 5.847656 C 18.375 6.085938 18.375 6.320312 18.378906 6.554688 C 18.378906 6.324219 18.378906 6.089844 18.382812 5.847656 C 18.378906 5.847656 18.378906 5.847656 18.378906 5.847656 Z M 18.378906 5.847656 "/>
<path style=" stroke:none;fill-rule:nonzero;fill:rgb(25.490198%,29.019609%,33.725491%);fill-opacity:1;" d="M 12.824219 1.636719 L 20.382812 4.875 L 20.800781 4.441406 L 12.824219 1.023438 L 4.6875 4.441406 L 5.132812 4.867188 Z M 12.824219 1.636719 "/>
<path style=" stroke:none;fill-rule:nonzero;fill:rgb(34.117648%,37.64706%,43.529412%);fill-opacity:1;" d="M 13.476562 7.757812 C 11.355469 7.691406 9.242188 7.988281 7.128906 8.578125 C 7.136719 7.960938 7.132812 7.332031 7.128906 6.707031 C 7.121094 6.15625 7.121094 5.601562 7.128906 5.058594 C 10.570312 3.613281 14.273438 3.523438 18.382812 5.238281 C 18.371094 5.839844 18.378906 6.394531 18.378906 6.953125 C 18.378906 7.476562 18.375 8.003906 18.359375 8.578125 C 16.726562 8.074219 15.101562 7.808594 13.476562 7.757812 Z M 13.476562 7.757812 "/>
<path style=" stroke:none;fill-rule:nonzero;fill:rgb(25.490198%,29.019609%,33.725491%);fill-opacity:1;" d="M 7.621094 8.449219 C 7.625 8.007812 7.621094 7.566406 7.617188 7.121094 C 7.609375 6.570312 7.609375 6.019531 7.617188 5.476562 C 10.921875 4.085938 14.464844 3.949219 18.378906 5.457031 C 18.378906 5.382812 18.378906 5.308594 18.382812 5.238281 C 14.273438 3.523438 10.570312 3.613281 7.128906 5.058594 C 7.121094 5.601562 7.121094 6.15625 7.128906 6.707031 C 7.132812 7.332031 7.136719 7.960938 7.128906 8.578125 C 7.292969 8.53125 7.457031 8.488281 7.621094 8.449219 Z M 7.621094 8.449219 "/>
<path style=" stroke:none;fill-rule:nonzero;fill:rgb(0%,0%,0%);fill-opacity:1;" d="M 19.824219 21.53125 L 20.800781 21.53125 L 20.800781 22.507812 L 19.824219 22.507812 Z M 19.824219 21.53125 "/>
<path style=" stroke:none;fill-rule:nonzero;fill:rgb(0%,0%,0%);fill-opacity:1;" d="M 19.824219 19.578125 L 20.800781 19.578125 L 20.800781 20.554688 L 19.824219 20.554688 Z M 19.824219 19.578125 "/>
<path style=" stroke:none;fill-rule:nonzero;fill:rgb(0%,0%,0%);fill-opacity:1;" d="M 19.824219 17.625 L 20.800781 17.625 L 20.800781 18.601562 L 19.824219 18.601562 Z M 19.824219 17.625 "/>
<path style=" stroke:none;fill-rule:nonzero;fill:rgb(0%,0%,0%);fill-opacity:1;" d="M 17.871094 21.53125 L 18.847656 21.53125 L 18.847656 22.507812 L 17.871094 22.507812 Z M 17.871094 21.53125 "/>
<path style=" stroke:none;fill-rule:nonzero;fill:rgb(0%,0%,0%);fill-opacity:1;" d="M 17.871094 19.578125 L 18.847656 19.578125 L 18.847656 20.554688 L 17.871094 20.554688 Z M 17.871094 19.578125 "/>
<path style=" stroke:none;fill-rule:nonzero;fill:rgb(0%,0%,0%);fill-opacity:1;" d="M 17.871094 17.625 L 18.847656 17.625 L 18.847656 18.601562 L 17.871094 18.601562 Z M 17.871094 17.625 "/>
<path style=" stroke:none;fill-rule:nonzero;fill:rgb(0%,0%,0%);fill-opacity:1;" d="M 15.917969 21.53125 L 16.894531 21.53125 L 16.894531 22.507812 L 15.917969 22.507812 Z M 15.917969 21.53125 "/>
<path style=" stroke:none;fill-rule:nonzero;fill:rgb(0%,0%,0%);fill-opacity:1;" d="M 15.917969 19.578125 L 16.894531 19.578125 L 16.894531 20.554688 L 15.917969 20.554688 Z M 15.917969 19.578125 "/>
<path style=" stroke:none;fill-rule:nonzero;fill:rgb(0%,0%,0%);fill-opacity:1;" d="M 15.917969 17.625 L 16.894531 17.625 L 16.894531 18.601562 L 15.917969 18.601562 Z M 15.917969 17.625 "/>
<path style=" stroke:none;fill-rule:nonzero;fill:rgb(0%,0%,0%);fill-opacity:1;" d="M 8.105469 21.53125 L 14.941406 21.53125 L 14.941406 22.507812 L 8.105469 22.507812 Z M 8.105469 21.53125 "/>
<path style=" stroke:none;fill-rule:nonzero;fill:rgb(0%,0%,0%);fill-opacity:1;" d="M 13.964844 19.578125 L 14.941406 19.578125 L 14.941406 20.554688 L 13.964844 20.554688 Z M 13.964844 19.578125 "/>
<path style=" stroke:none;fill-rule:nonzero;fill:rgb(0%,0%,0%);fill-opacity:1;" d="M 13.964844 17.625 L 14.941406 17.625 L 14.941406 18.601562 L 13.964844 18.601562 Z M 13.964844 17.625 "/>
<path style=" stroke:none;fill-rule:nonzero;fill:rgb(0%,0%,0%);fill-opacity:1;" d="M 12.011719 19.578125 L 12.988281 19.578125 L 12.988281 20.554688 L 12.011719 20.554688 Z M 12.011719 19.578125 "/>
<path style=" stroke:none;fill-rule:nonzero;fill:rgb(0%,0%,0%);fill-opacity:1;" d="M 12.011719 17.625 L 12.988281 17.625 L 12.988281 18.601562 L 12.011719 18.601562 Z M 12.011719 17.625 "/>
<path style=" stroke:none;fill-rule:nonzero;fill:rgb(0%,0%,0%);fill-opacity:1;" d="M 10.058594 19.578125 L 11.035156 19.578125 L 11.035156 20.554688 L 10.058594 20.554688 Z M 10.058594 19.578125 "/>
<path style=" stroke:none;fill-rule:nonzero;fill:rgb(0%,0%,0%);fill-opacity:1;" d="M 10.058594 17.625 L 11.035156 17.625 L 11.035156 18.601562 L 10.058594 18.601562 Z M 10.058594 17.625 "/>
<path style=" stroke:none;fill-rule:nonzero;fill:rgb(0%,0%,0%);fill-opacity:1;" d="M 8.105469 19.578125 L 9.082031 19.578125 L 9.082031 20.554688 L 8.105469 20.554688 Z M 8.105469 19.578125 "/>
<path style=" stroke:none;fill-rule:nonzero;fill:rgb(0%,0%,0%);fill-opacity:1;" d="M 8.105469 17.625 L 9.082031 17.625 L 9.082031 18.601562 L 8.105469 18.601562 Z M 8.105469 17.625 "/>
<path style=" stroke:none;fill-rule:nonzero;fill:rgb(0%,0%,0%);fill-opacity:1;" d="M 6.152344 21.53125 L 7.128906 21.53125 L 7.128906 22.507812 L 6.152344 22.507812 Z M 6.152344 21.53125 "/>
<path style=" stroke:none;fill-rule:nonzero;fill:rgb(0%,0%,0%);fill-opacity:1;" d="M 6.152344 19.578125 L 7.128906 19.578125 L 7.128906 20.554688 L 6.152344 20.554688 Z M 6.152344 19.578125 "/>
<path style=" stroke:none;fill-rule:nonzero;fill:rgb(0%,0%,0%);fill-opacity:1;" d="M 6.152344 17.625 L 7.128906 17.625 L 7.128906 18.601562 L 6.152344 18.601562 Z M 6.152344 17.625 "/>
<path style=" stroke:none;fill-rule:nonzero;fill:rgb(0%,0%,0%);fill-opacity:1;" d="M 4.199219 21.53125 L 5.175781 21.53125 L 5.175781 22.507812 L 4.199219 22.507812 Z M 4.199219 21.53125 "/>
<path style=" stroke:none;fill-rule:nonzero;fill:rgb(0%,0%,0%);fill-opacity:1;" d="M 4.199219 19.578125 L 5.175781 19.578125 L 5.175781 20.554688 L 4.199219 20.554688 Z M 4.199219 19.578125 "/>
<path style=" stroke:none;fill-rule:nonzero;fill:rgb(0%,0%,0%);fill-opacity:1;" d="M 4.199219 17.625 L 5.175781 17.625 L 5.175781 18.601562 L 4.199219 18.601562 Z M 4.199219 17.625 "/>
<path style=" stroke:none;fill-rule:nonzero;fill:rgb(0%,0%,0%);fill-opacity:1;" d="M 18.378906 7.195312 C 18.316406 7.195312 18.253906 7.175781 18.207031 7.128906 C 18.109375 7.035156 18.109375 6.882812 18.199219 6.785156 L 20.378906 4.527344 L 12.824219 1.289062 L 5.125 4.523438 L 7.183594 6.46875 C 7.191406 6.46875 7.191406 6.472656 7.199219 6.472656 C 7.328125 6.511719 7.402344 6.648438 7.359375 6.777344 L 7.351562 6.816406 C 7.328125 6.894531 7.261719 6.957031 7.179688 6.980469 C 7.097656 7 7.011719 6.980469 6.949219 6.921875 L 4.519531 4.621094 C 4.457031 4.566406 4.429688 4.480469 4.445312 4.402344 C 4.460938 4.316406 4.515625 4.25 4.59375 4.21875 L 12.730469 0.800781 C 12.789062 0.773438 12.859375 0.773438 12.921875 0.800781 L 20.898438 4.21875 C 20.972656 4.25 21.023438 4.316406 21.039062 4.394531 C 21.058594 4.472656 21.03125 4.554688 20.976562 4.613281 L 18.550781 7.121094 C 18.507812 7.171875 18.441406 7.195312 18.378906 7.195312 Z M 18.378906 7.195312 "/>
<path style=" stroke:none;fill-rule:nonzero;fill:rgb(0%,0%,0%);fill-opacity:1;" d="M 7.128906 8.824219 C 7.078125 8.824219 7.023438 8.804688 6.980469 8.773438 C 6.917969 8.726562 6.886719 8.652344 6.886719 8.574219 C 6.894531 7.980469 6.886719 7.363281 6.886719 6.769531 L 6.886719 6.710938 C 6.882812 6.226562 6.875 5.625 6.886719 5.058594 C 6.886719 4.960938 6.945312 4.871094 7.035156 4.832031 C 8.796875 4.09375 10.609375 3.71875 12.425781 3.71875 C 14.382812 3.71875 16.417969 4.152344 18.476562 5.011719 C 18.570312 5.050781 18.628906 5.140625 18.625 5.242188 C 18.617188 5.726562 18.617188 6.195312 18.621094 6.644531 L 18.621094 6.953125 C 18.621094 7.453125 18.621094 7.996094 18.601562 8.585938 C 18.601562 8.660156 18.5625 8.734375 18.503906 8.777344 C 18.4375 8.824219 18.359375 8.835938 18.285156 8.8125 C 16.71875 8.324219 15.097656 8.054688 13.46875 8 C 13.273438 7.996094 13.078125 7.992188 12.882812 7.992188 C 11.050781 7.992188 9.136719 8.269531 7.195312 8.8125 C 7.175781 8.820312 7.148438 8.824219 7.128906 8.824219 Z M 7.371094 5.222656 C 7.363281 5.738281 7.371094 6.269531 7.375 6.703125 L 7.375 6.765625 C 7.375 7.257812 7.378906 7.761719 7.375 8.257812 C 9.253906 7.757812 11.105469 7.503906 12.882812 7.503906 C 13.082031 7.503906 13.285156 7.507812 13.484375 7.511719 C 15.046875 7.5625 16.609375 7.8125 18.125 8.253906 C 18.132812 7.792969 18.132812 7.359375 18.132812 6.953125 L 18.132812 6.644531 C 18.128906 6.242188 18.128906 5.832031 18.136719 5.402344 C 16.191406 4.609375 14.269531 4.207031 12.425781 4.207031 C 10.726562 4.207031 9.027344 4.546875 7.371094 5.222656 Z M 7.371094 5.222656 "/>
<path style=" stroke:none;fill-rule:nonzero;fill:rgb(0%,0%,0%);fill-opacity:1;" d="M 20.800781 10.058594 C 20.667969 10.058594 20.554688 9.949219 20.554688 9.816406 L 20.554688 4.441406 C 20.554688 4.308594 20.667969 4.199219 20.800781 4.199219 C 20.933594 4.199219 21.046875 4.308594 21.046875 4.441406 L 21.046875 9.816406 C 21.046875 9.949219 20.933594 10.058594 20.800781 10.058594 Z M 20.800781 10.058594 "/>
<path style=" stroke:none;fill-rule:nonzero;fill:rgb(0%,0%,0%);fill-opacity:1;" d="M 20.800781 12.011719 C 20.125 12.011719 19.578125 11.464844 19.578125 10.792969 C 19.578125 10.117188 20.125 9.570312 20.800781 9.570312 C 21.476562 9.570312 22.023438 10.117188 22.023438 10.792969 C 22.023438 11.464844 21.476562 12.011719 20.800781 12.011719 Z M 20.800781 10.058594 C 20.398438 10.058594 20.070312 10.386719 20.070312 10.792969 C 20.070312 11.195312 20.398438 11.523438 20.800781 11.523438 C 21.203125 11.523438 21.53125 11.195312 21.53125 10.792969 C 21.53125 10.386719 21.203125 10.058594 20.800781 10.058594 Z M 20.800781 10.058594 "/>
<path style=" stroke:none;fill-rule:nonzero;fill:rgb(0%,0%,0%);fill-opacity:1;" d="M 17.871094 16.40625 C 17.738281 16.40625 17.625 16.296875 17.625 16.164062 L 17.625 14.453125 C 17.625 14.0625 17.472656 13.691406 17.195312 13.417969 C 16.921875 13.140625 16.554688 12.988281 16.164062 12.988281 L 5.175781 12.988281 C 4.785156 12.988281 4.414062 12.835938 4.140625 12.558594 C 3.863281 12.285156 3.710938 11.914062 3.710938 11.523438 C 3.710938 10.714844 4.367188 10.058594 5.175781 10.058594 L 12.257812 10.058594 C 12.792969 10.058594 13.234375 9.621094 13.234375 9.082031 L 13.234375 6.398438 C 13.234375 6.261719 13.34375 6.152344 13.476562 6.152344 C 13.609375 6.152344 13.71875 6.261719 13.71875 6.398438 L 13.71875 9.082031 C 13.71875 9.890625 13.066406 10.546875 12.257812 10.546875 L 5.175781 10.546875 C 4.640625 10.546875 4.199219 10.988281 4.199219 11.523438 C 4.199219 11.785156 4.300781 12.03125 4.484375 12.214844 C 4.667969 12.398438 4.914062 12.5 5.175781 12.5 L 16.164062 12.5 C 16.683594 12.5 17.175781 12.703125 17.542969 13.070312 C 17.910156 13.441406 18.117188 13.929688 18.117188 14.453125 L 18.117188 16.164062 C 18.117188 16.296875 18.003906 16.40625 17.871094 16.40625 Z M 17.871094 16.40625 "/>
<path style=" stroke:none;fill-rule:nonzero;fill:rgb(0%,0%,0%);fill-opacity:1;" d="M 22.753906 24.21875 L 2.246094 24.21875 C 2.113281 24.21875 2 24.109375 2 23.976562 L 2 16.164062 C 2 16.027344 2.113281 15.917969 2.246094 15.917969 L 22.753906 15.917969 C 22.886719 15.917969 23 16.027344 23 16.164062 L 23 23.976562 C 23 24.109375 22.886719 24.21875 22.753906 24.21875 Z M 2.492188 23.730469 L 22.507812 23.730469 L 22.507812 16.40625 L 2.492188 16.40625 Z M 2.492188 23.730469 "/>
</g>
</svg>
